<?xml version="1.0" ?>
<!DOCTYPE svg  PUBLIC '-//W3C//DTD SVG 1.1//EN'  'http://www.w3.org/Graphics/SVG/1.1/DTD/svg11.dtd'>
<!-- Uploaded to: SVG Repo, www.svgrepo.com, Generator: SVG Repo Mixer Tools -->
<svg width="800px" height="800px" viewBox="0 0 48 48" enable-background="new 0 0 48 48" id="_x3C_Layer_x3E_" version="1.1" xml:space="preserve" xmlns="http://www.w3.org/2000/svg" xmlns:xlink="http://www.w3.org/1999/xlink">
<g id="clock_x2C__time">
<circle cx="24" cy="24" fill="#64FFDA" r="21.5"/>
<path d="M24,46C11.869,46,2,36.131,2,24c0-6.952,3.183-13.348,8.732-17.55c0.218-0.167,0.532-0.124,0.7,0.097   c0.167,0.22,0.124,0.534-0.097,0.7C6.038,11.258,3,17.364,3,24c0,11.58,9.421,21,21,21s21-9.42,21-21S35.579,3,24,3   c-3.798,0-7.519,1.024-10.76,2.963c-0.238,0.14-0.545,0.064-0.686-0.173c-0.143-0.237-0.064-0.544,0.172-0.686   C16.124,3.074,20.021,2,24,2c12.131,0,22,9.869,22,22S36.131,46,24,46z" fill="#0277BD"/>
<path d="M24,45C12.421,45,3,35.58,3,24c0-6.548,2.975-12.605,8.16-16.619c0.216-0.168,0.531-0.129,0.701,0.089   c0.169,0.219,0.129,0.533-0.09,0.702C6.833,11.995,4,17.764,4,24c0,11.028,8.972,20,20,20s20-8.972,20-20S35.028,4,24,4   c-3.634,0-7.19,0.983-10.287,2.845c-0.236,0.143-0.544,0.066-0.687-0.171c-0.143-0.236-0.065-0.543,0.171-0.686   C16.45,4.033,20.186,3,24,3c11.579,0,21,9.42,21,21S35.579,45,24,45z" fill="#FFFFFF"/>
<circle cx="24" cy="24" fill="#E1F5FE" r="18.5"/>
<path d="M24,43C13.523,43,5,34.477,5,24S13.523,5,24,5s19,8.523,19,19c0,4.14-1.309,8.075-3.784,11.38   c-0.167,0.222-0.48,0.266-0.7,0.101c-0.221-0.166-0.266-0.479-0.101-0.7C40.761,31.649,42,27.922,42,24c0-9.925-8.075-18-18-18   S6,14.075,6,24s8.075,18,18,18c4.801,0,9.315-1.867,12.712-5.258c0.195-0.194,0.512-0.195,0.707,0.001   c0.195,0.195,0.195,0.512,0,0.707C33.833,41.029,29.067,43,24,43z" fill="#0277BD"/>
<path d="M24,42c-9.925,0-18-8.075-18-18S14.075,6,24,6s18,8.075,18,18c0,3.922-1.239,7.65-3.584,10.78   c-0.166,0.222-0.479,0.265-0.7,0.101c-0.221-0.166-0.266-0.479-0.101-0.7C39.83,31.225,41,27.704,41,24c0-9.374-7.626-17-17-17   S7,14.626,7,24s7.626,17,17,17c4.646,0,8.985-1.839,12.216-5.179c0.191-0.198,0.509-0.203,0.707-0.012   c0.198,0.192,0.204,0.509,0.012,0.707C33.514,40.053,28.92,42,24,42z" fill="#FFFFFF"/>
<g>
<g>
<g>
<circle cx="31.5" cy="11.01" fill="#FF80AB" r="0.5"/>
<circle cx="31.5" cy="11.01" fill="#0277BD" r="1"/>
</g>
<g>
<circle cx="16.5" cy="36.99" fill="#FF80AB" r="0.5"/>
<circle cx="16.5" cy="36.99" fill="#0277BD" r="1"/>
</g>
</g>
<g>
<g>
<circle cx="36.99" cy="16.5" fill="#FF80AB" r="0.5"/>
<circle cx="36.99" cy="16.5" fill="#0277BD" r="1"/>
</g>
<g>
<circle cx="11.01" cy="31.5" fill="#FF80AB" r="0.5"/>
<circle cx="11.01" cy="31.5" fill="#0277BD" r="1"/>
</g>
</g>
<g>
<g>
<circle cx="39" cy="24" fill="#FF80AB" r="0.5"/>
<circle cx="39" cy="24" fill="#0277BD" r="1"/>
</g>
<g>
<circle cx="9" cy="24" fill="#FF80AB" r="0.5"/>
<circle cx="9" cy="24" fill="#0277BD" r="1"/>
</g>
</g>
<g>
<g>
<circle cx="36.99" cy="31.5" fill="#FF80AB" r="0.5"/>
<circle cx="36.99" cy="31.5" fill="#0277BD" r="1"/>
</g>
<g>
<circle cx="11.01" cy="16.5" fill="#FF80AB" r="0.5"/>
<circle cx="11.01" cy="16.5" fill="#0277BD" r="1"/>
</g>
</g>
<g>
<g>
<circle cx="31.5" cy="36.99" fill="#FF80AB" r="0.5"/>
<circle cx="31.5" cy="36.99" fill="#0277BD" r="1"/>
</g>
<g>
<circle cx="16.5" cy="11.01" fill="#FF80AB" r="0.5"/>
<circle cx="16.5" cy="11.01" fill="#0277BD" r="1"/>
</g>
</g>
<g>
<g>
<circle cx="24" cy="39" fill="#FF80AB" r="0.5"/>
<circle cx="24" cy="39" fill="#0277BD" r="1"/>
</g>
<g>
<circle cx="24" cy="9" fill="#FF80AB" r="0.5"/>
<circle cx="24" cy="9" fill="#0277BD" r="1"/>
</g>
</g>
</g>
<path d="M24,28c-2.206,0-4-1.794-4-4s1.794-4,4-4s4,1.794,4,4S26.206,28,24,28z M24,21c-1.654,0-3,1.346-3,3   s1.346,3,3,3s3-1.346,3-3S25.654,21,24,21z" fill="#FFFFFF"/>
<path d="M24,24.5c-0.18,0-0.354-0.098-0.443-0.268c-0.128-0.245-0.033-0.547,0.211-0.675l10.5-5.5   c0.245-0.129,0.547-0.034,0.676,0.211c0.128,0.245,0.033,0.547-0.211,0.675l-10.5,5.5C24.158,24.482,24.078,24.5,24,24.5z" fill="#0277BD"/>
<path d="M24,24.5c-0.153,0-0.306-0.071-0.403-0.204l-5.5-7.5c-0.163-0.223-0.115-0.536,0.107-0.699   c0.222-0.164,0.536-0.115,0.699,0.107l5.5,7.5c0.163,0.223,0.115,0.536-0.107,0.699C24.207,24.469,24.103,24.5,24,24.5z" fill="#0277BD"/>
<g>
<circle cx="24" cy="24" fill="#FF80AB" r="2.5"/>
<path d="M24,27c-1.654,0-3-1.346-3-3s1.346-3,3-3s3,1.346,3,3S25.654,27,24,27z M24,22c-1.103,0-2,0.897-2,2    s0.897,2,2,2s2-0.897,2-2S25.103,22,24,22z" fill="#0277BD"/>
</g>
<path d="M24,26c-1.103,0-2-0.897-2-2s0.897-2,2-2s2,0.897,2,2S25.103,26,24,26z M24,23c-0.552,0-1,0.449-1,1   s0.448,1,1,1s1-0.449,1-1S24.552,23,24,23z" fill="#FCE4EC"/>
</g>
</svg>